<?xml version="1.0" encoding="UTF-8" standalone="no"?>
<!DOCTYPE svg PUBLIC "-//W3C//DTD SVG 1.1//EN" "http://www.w3.org/Graphics/SVG/1.1/DTD/svg11.dtd">
<svg width="100%" height="100%" viewBox="0 0 1080 1080" version="1.1" xmlns="http://www.w3.org/2000/svg" xmlns:xlink="http://www.w3.org/1999/xlink" xml:space="preserve" xmlns:serif="http://www.serif.com/" style="fill-rule:evenodd;clip-rule:evenodd;stroke-linejoin:round;stroke-miterlimit:2;">
    <rect id="Artboard1" x="0" y="0" width="1080" height="1080" style="fill:none;"/>
    <g id="Artboard11" serif:id="Artboard1">
        <g>
            <g transform="matrix(1,0,0,1,0.625015,-2.62143)">
                <rect x="768.202" y="839.188" width="4.722" height="34.697" style="fill:#000000;"/>
            </g>
            <g transform="matrix(1,0,0,1,-0.0116977,-2.62143)">
                <path d="M615.376,873.885L615.376,839.188L621.191,839.188C623.25,839.188 625.225,840.006 626.682,841.462C628.138,842.919 628.956,844.894 628.956,846.953L628.956,850.062C628.956,852.081 628.17,854.019 626.767,855.467C628.122,856.865 628.956,858.771 628.956,860.872L628.956,873.885L624.234,873.885L624.234,860.872C624.234,859.191 622.872,857.828 621.191,857.828L620.098,857.828L620.098,873.885L615.376,873.885ZM621.191,853.106C621.998,853.106 622.772,852.785 623.343,852.214C623.914,851.644 624.234,850.87 624.234,850.062L624.234,846.953C624.234,846.146 623.914,845.372 623.343,844.801C622.772,844.231 621.998,843.91 621.191,843.91L620.098,843.91L620.098,853.106L621.191,853.106Z" style="fill:#000000;"/>
            </g>
            <g transform="matrix(1,0,0,1,126.258,-2.62143)">
                <path d="M615.376,873.885L615.376,839.188L621.191,839.188C623.25,839.188 625.225,840.006 626.682,841.462C628.138,842.919 628.956,844.894 628.956,846.953L628.956,850.062C628.956,852.081 628.17,854.019 626.767,855.467C628.122,856.865 628.956,858.771 628.956,860.872L628.956,873.885L624.234,873.885L624.234,860.872C624.234,859.191 622.872,857.828 621.191,857.828L620.098,857.828L620.098,873.885L615.376,873.885ZM621.191,853.106C621.998,853.106 622.772,852.785 623.343,852.214C623.914,851.644 624.234,850.87 624.234,850.062L624.234,846.953C624.234,846.146 623.914,845.372 623.343,844.801C622.772,844.231 621.998,843.91 621.191,843.91L620.098,843.91L620.098,853.106L621.191,853.106Z" style="fill:#000000;"/>
            </g>
            <g transform="matrix(1,0,0,1,0.733742,-2.62143)">
                <path d="M566.035,843.91L561.606,843.91L561.606,839.188L575.186,839.188L575.186,843.91L570.757,843.91L570.757,873.885L566.035,873.885L566.035,843.91Z" style="fill:#000000;"/>
            </g>
            <g transform="matrix(1,0,0,1,79.5973,-2.62143)">
                <path d="M518.113,839.188L522.835,839.188L522.835,867.138C522.835,870.864 519.815,873.885 516.088,873.885L516.001,873.885C512.275,873.885 509.255,870.864 509.255,867.138L509.255,839.188L513.977,839.188L513.977,867.138C513.977,868.256 514.883,869.163 516.001,869.163L516.088,869.163C517.207,869.163 518.113,868.256 518.113,867.138L518.113,839.188Z" style="fill:#000000;"/>
            </g>
            <g transform="matrix(1,0,0,1,0,-2.62143)">
                <path d="M434.263,865.824L433.324,873.885L428.57,873.885L432.609,839.188L439.23,839.188L443.269,873.885L438.515,873.885L437.577,865.824L434.263,865.824ZM435.92,851.591L434.812,861.102L437.027,861.102L435.92,851.591Z" style="fill:#000000;"/>
            </g>
            <g transform="matrix(-1,-1.22465e-16,1.22465e-16,-1,925.437,1710.45)">
                <path d="M432.06,843.91L432.609,839.188L439.23,839.188L439.779,843.91L432.06,843.91Z" style="fill:#000000;"/>
            </g>
            <g transform="matrix(-1,-1.22465e-16,1.22465e-16,-1,925.401,1710.45)">
                <path d="M435.92,839.312L436.991,839.188L439.23,839.188L443.269,873.885L438.515,873.885L435.92,851.591L433.324,873.885L428.57,873.885L432.609,839.188L434.849,839.188L435.92,839.312Z" style="fill:#000000;"/>
            </g>
            <g transform="matrix(1,0,0,1,0.255949,0)">
                <path d="M536.019,871.264L536.019,836.566L539.694,836.566L544.43,852.586L544.43,836.566L549.152,836.566L549.152,871.264L545.027,871.264L540.741,856.765L540.741,871.264L536.019,871.264Z" style="fill:#000000;"/>
            </g>
            <g transform="matrix(1,0,0,1,0,-2.62143)">
                <path d="M443.269,873.885L438.515,873.885L437.965,869.163L442.719,869.163L443.269,873.885ZM433.874,869.163L433.324,873.885L428.57,873.885L429.12,869.163L433.874,869.163Z" style="fill:#000000;"/>
            </g>
            <g transform="matrix(1,0,0,1,-205.94,0)">
                <path d="M536.019,871.264L536.019,836.566L539.694,836.566L544.43,852.586L544.43,836.566L549.152,836.566L549.152,871.264L545.027,871.264L540.741,856.765L540.741,871.264L536.019,871.264Z" style="fill:#000000;"/>
            </g>
            <g transform="matrix(-1,-1.22465e-16,1.22465e-16,-1,925.437,1710.45)">
                <path d="M443.269,873.885L438.515,873.885L437.965,869.163L442.719,869.163L443.269,873.885ZM433.874,869.163L433.324,873.885L428.57,873.885L429.12,869.163L433.874,869.163Z" style="fill:#000000;"/>
            </g>
            <g transform="matrix(1,0,0,1,-0.619382,-2.62143)">
                <path d="M303.454,873.885L303.454,839.188L317.035,839.188L317.035,843.91L314.674,843.91L308.177,843.91L308.177,854.175L315.514,854.175L315.514,858.897L308.177,858.897L308.177,869.163L317.035,869.163L317.035,873.885L303.454,873.885Z" style="fill:#000000;"/>
            </g>
            <g transform="matrix(1,0,0,1,80.0831,-2.62143)">
                <path d="M303.454,873.885L303.454,839.188L317.035,839.188L317.035,843.91L314.674,843.91L308.177,843.91L308.177,854.175L315.514,854.175L315.514,858.897L308.177,858.897L308.177,869.163L317.035,869.163L317.035,873.885L303.454,873.885Z" style="fill:#000000;"/>
            </g>
            <g transform="matrix(1,0,0,1,206.308,-2.62143)">
                <path d="M303.454,873.885L303.454,839.188L317.035,839.188L317.035,843.91L314.674,843.91L308.177,843.91L308.177,854.175L315.514,854.175L315.514,858.897L308.177,858.897L308.177,869.163L317.035,869.163L317.035,873.885L303.454,873.885Z" style="fill:#000000;"/>
            </g>
            <g transform="matrix(1,0,0,1,338.422,-2.62143)">
                <path d="M303.454,873.885L303.454,839.188L317.035,839.188L317.035,843.91L314.674,843.91L308.177,843.91L308.177,854.175L315.514,854.175L315.514,858.897L308.177,858.897L308.177,869.163L317.035,869.163L317.035,873.885L303.454,873.885Z" style="fill:#000000;"/>
            </g>
            <g transform="matrix(1,0,0,1,410.986,-2.62143)">
                <path d="M303.454,873.885L303.454,839.188L317.035,839.188L317.035,843.91L314.674,843.91L308.177,843.91L308.177,854.175L315.514,854.175L315.514,858.897L308.177,858.897L308.177,869.163L317.035,869.163L317.035,873.885L303.454,873.885Z" style="fill:#000000;"/>
            </g>
            <g transform="matrix(1,0,0,1,483.708,-2.62143)">
                <path d="M303.454,873.885L303.454,839.188L317.035,839.188L317.035,843.91L314.674,843.91L308.177,843.91L308.177,854.175L315.514,854.175L315.514,858.897L308.177,858.897L308.177,869.163L317.035,869.163L317.035,873.885L303.454,873.885Z" style="fill:#000000;"/>
            </g>
            <g transform="matrix(1,0,0,1,0.322467,-2.62143)">
                <rect x="284.127" y="839.188" width="4.722" height="34.697" style="fill:#000000;"/>
            </g>
            <g transform="matrix(1,0,0,1,0.445064,-2.62143)">
                <path d="M265.619,860.92L270.341,860.92L270.341,867.386C270.341,870.975 267.431,873.885 263.842,873.885C260.252,873.885 257.342,870.975 257.342,867.386L257.342,845.687C257.342,842.097 260.252,839.188 263.842,839.188C267.431,839.188 270.341,842.097 270.341,845.687L270.341,851.039L265.619,851.039L265.619,845.687C265.619,844.705 264.823,843.91 263.842,843.91C262.86,843.91 262.065,844.705 262.064,845.687L262.064,867.386C262.065,868.367 262.86,869.163 263.842,869.163C264.823,869.163 265.619,868.367 265.619,867.386L265.619,860.92Z" style="fill:#000000;"/>
            </g>
            <g transform="matrix(1,0,0,1,99.533,-2.62143)">
                <path d="M265.619,860.92L270.341,860.92L270.341,867.386C270.341,870.975 267.431,873.885 263.842,873.885C260.252,873.885 257.342,870.975 257.342,867.386L257.342,845.687C257.342,842.097 260.252,839.188 263.842,839.188C267.431,839.188 270.341,842.097 270.341,845.687L270.341,851.039L265.619,851.039L265.619,845.687C265.619,844.705 264.823,843.91 263.842,843.91C262.86,843.91 262.065,844.705 262.064,845.687L262.064,867.386C262.065,868.367 262.86,869.163 263.842,869.163C264.823,869.163 265.619,868.367 265.619,867.386L265.619,860.92Z" style="fill:#000000;"/>
            </g>
            <g transform="matrix(1,0,0,1,0.507501,-2.62143)">
                <path d="M462.021,839.188C463.79,839.188 465.487,839.891 466.738,841.142C467.989,842.393 468.692,844.09 468.692,845.859L468.692,867.213C468.692,868.983 467.989,870.68 466.738,871.931C465.487,873.182 463.79,873.885 462.021,873.885L455.693,873.885L455.693,839.188L462.021,839.188ZM462.021,843.91L460.416,843.91L460.416,869.163L462.021,869.163C462.538,869.163 463.034,868.957 463.399,868.592C463.765,868.226 463.97,867.731 463.97,867.213L463.97,845.859C463.97,845.342 463.765,844.846 463.399,844.481C463.034,844.115 462.538,843.91 462.021,843.91Z" style="fill:#000000;"/>
            </g>
            <g transform="matrix(0.850575,0,0,0.930556,35.5547,56.2358)">
                <path d="M245.21,852.052L239.658,852.052L239.658,845.482C239.658,844.464 238.756,843.639 237.642,843.639L237.639,843.639C236.446,843.639 235.479,844.522 235.479,845.613L235.479,850.626C235.479,850.824 235.56,851.015 235.707,851.162L242.194,857.653C244.134,859.594 245.21,862.128 245.21,864.757L245.21,868.867C245.21,870.719 244.405,872.495 242.972,873.805C241.539,875.115 239.595,875.851 237.569,875.851C235.542,875.851 233.598,875.115 232.165,873.805C230.732,872.495 229.927,870.719 229.927,868.867L229.927,860.92L235.479,860.92L235.479,868.867C235.479,869.373 235.699,869.859 236.091,870.217C236.483,870.575 237.015,870.776 237.569,870.776C238.123,870.776 238.655,870.575 239.046,870.217C239.438,869.859 239.658,869.373 239.658,868.867L239.658,864.757C239.658,863.395 239.101,862.081 238.095,861.076L231.608,854.585C230.527,853.503 229.927,852.091 229.927,850.626L229.927,845.613C229.927,841.72 233.38,838.564 237.639,838.564L237.642,838.564C241.822,838.564 245.21,841.661 245.21,845.482L245.21,852.052Z" style="fill:#000000;"/>
            </g>
            <g transform="matrix(0.850575,0,0,0.930556,492.258,56.2358)">
                <path d="M245.21,852.052L239.658,852.052L239.658,845.482C239.658,844.464 238.756,843.639 237.642,843.639L237.639,843.639C236.446,843.639 235.479,844.522 235.479,845.613L235.479,850.626C235.479,850.824 235.56,851.015 235.707,851.162L242.194,857.653C244.134,859.594 245.21,862.128 245.21,864.757L245.21,868.867C245.21,870.719 244.405,872.495 242.972,873.805C241.539,875.115 239.595,875.851 237.569,875.851C235.542,875.851 233.598,875.115 232.165,873.805C230.732,872.495 229.927,870.719 229.927,868.867L229.927,860.92L235.479,860.92L235.479,868.867C235.479,869.373 235.699,869.859 236.091,870.217C236.483,870.575 237.015,870.776 237.569,870.776C238.123,870.776 238.655,870.575 239.046,870.217C239.438,869.859 239.658,869.373 239.658,868.867L239.658,864.757C239.658,863.395 239.101,862.081 238.095,861.076L231.608,854.585C230.527,853.503 229.927,852.091 229.927,850.626L229.927,845.613C229.927,841.72 233.38,838.564 237.639,838.564L237.642,838.564C241.822,838.564 245.21,841.661 245.21,845.482L245.21,852.052Z" style="fill:#000000;"/>
            </g>
            <g transform="matrix(0.850575,0,0,0.930556,618.786,56.2358)">
                <path d="M245.21,852.052L239.658,852.052L239.658,845.482C239.658,844.464 238.756,843.639 237.642,843.639L237.639,843.639C236.446,843.639 235.479,844.522 235.479,845.613L235.479,850.626C235.479,850.824 235.56,851.015 235.707,851.162L242.194,857.653C244.134,859.594 245.21,862.128 245.21,864.757L245.21,868.867C245.21,870.719 244.405,872.495 242.972,873.805C241.539,875.115 239.595,875.851 237.569,875.851C235.542,875.851 233.598,875.115 232.165,873.805C230.732,872.495 229.927,870.719 229.927,868.867L229.927,860.92L235.479,860.92L235.479,868.867C235.479,869.373 235.699,869.859 236.091,870.217C236.483,870.575 237.015,870.776 237.569,870.776C238.123,870.776 238.655,870.575 239.046,870.217C239.438,869.859 239.658,869.373 239.658,868.867L239.658,864.757C239.658,863.395 239.101,862.081 238.095,861.076L231.608,854.585C230.527,853.503 229.927,852.091 229.927,850.626L229.927,845.613C229.927,841.72 233.38,838.564 237.639,838.564L237.642,838.564C241.822,838.564 245.21,841.661 245.21,845.482L245.21,852.052Z" style="fill:#000000;"/>
            </g>
            <g transform="matrix(1,0,0,1,0,-3)">
                <path d="M582.478,746.717L561.681,746.717L529.699,816.622L552.069,816.622L571.468,771.533L595.061,816.971L616.032,816.971L620.052,793.553L607.993,793.553L594.187,768.737L603.449,768.737L607.119,746.192L589.468,746.192L589.468,758.251L582.478,746.717Z" style="fill:#000000;"/>
            </g>
            <g transform="matrix(1,0,0,1,0,-3)">
                <path d="M627.566,746.192L610.614,746.192L606.42,768.038L624.071,768.038L627.566,746.192Z" style="fill:#000000;"/>
            </g>
            <g transform="matrix(1,0,0,1,0,-3)">
                <path d="M674.752,749.513L637.178,745.668L632.46,769.611L672.131,773.281L674.752,749.513Z" style="fill:#000000;"/>
            </g>
            <g transform="matrix(1,0,0,1,0,-3)">
                <path d="M691.704,775.727L628.79,792.155L625.12,817.67L690.306,800.718L691.704,775.727Z" style="fill:#000000;"/>
            </g>
            <g transform="matrix(1,0,0,1,0,-3)">
                <path d="M771.046,741.124L712.851,745.668L708.132,768.212L730.327,765.941L728.579,773.455L701.491,773.281L697.297,794.776L721.064,794.776L712.326,816.622L735.045,816.622L742.56,794.776L767.376,794.776L770.697,773.455L749.551,773.455L753.395,764.193L767.901,762.271L771.046,741.124Z" style="fill:#000000;"/>
            </g>
            <g transform="matrix(1,0,0,1,0,-3)">
                <path d="M805.824,756.678L784.154,756.678L784.154,773.281L776.639,773.281L772.27,794.951L785.202,794.951L785.202,816.971L805.649,816.971L805.649,794.427L810.368,794.427L807.747,804.913L825.048,804.913L836.757,773.281L805.999,773.281L805.824,756.678Z" style="fill:#000000;"/>
            </g>
            <g transform="matrix(1,0,0,1,0,-3)">
                <path d="M901.594,773.106L843.748,773.106L838.155,795.126L897.749,795.126L901.594,773.106Z" style="fill:#000000;"/>
            </g>
            <g transform="matrix(1,0,0,1,0,-3)">
                <path d="M537.199,745.321L519.975,745.321L516.06,769.704L534.068,769.704L537.199,745.321Z" style="fill:#000000;"/>
            </g>
            <g transform="matrix(1,0,0,1,0,-3)">
                <path d="M489.328,745.657L468.86,745.657L455.886,817.016L478.591,817.016L481.723,797.107L528.363,800.462L532.278,776.303L485.078,773.507L489.328,745.657Z" style="fill:#000000;"/>
            </g>
            <g transform="matrix(1,0,0,1,0,-3)">
                <path d="M495.135,769.218L499.171,745.769L515.836,745.769L512.593,769.704L495.135,769.218Z" style="fill:#000000;"/>
            </g>
            <g transform="matrix(1,0,0,1,0,-3)">
                <path d="M384.639,746.104L380.724,768.921L423.562,768.026L419.535,773.731L405.219,773.731L389.56,817.128L412.153,817.128L423.674,781.448L430.049,790.955L455.886,767.915L458.794,745.321L384.639,746.104Z" style="fill:#000000;"/>
            </g>
            <g transform="matrix(1,0,0,1,0,-3)">
                <path d="M351.699,764.035L301.144,764.035L298.236,780.253L323.961,780.253L321.389,783.496L284.702,783.496L281.459,798.82L312.553,798.82L310.875,801.616L299.355,801.616L296.111,816.268L326.869,816.268L330.001,798.484L362.213,798.484L364.45,782.49L348.232,782.49L348.456,779.971L350.21,779.89L351.699,764.035Z" style="fill:#000000;"/>
            </g>
            <g transform="matrix(1,0,0,1,0,-3)">
                <path d="M236.71,742.916L216.088,742.916L214.865,746.76L195.291,746.76L191.796,761.615L203.397,761.615L202.806,764.936L187.602,764.936L184.631,781.014L197.913,781.014L176.941,797.966L187.777,809.5L195.99,801.811L194.243,817.015L212.593,817.015L215.214,799.364L217.137,803.034L230.135,791.849L229.792,797.966L248.196,797.966L244.924,817.015L264.497,817.015L266.663,798.315L274.109,798.315L277.354,782.45L270.014,782.45L277.255,746.586L257.682,746.586L251.39,782.587L232.865,782.587L230.419,788.878L222.03,780.315L230.45,780.404L232.865,765.285L221.331,765.285L221.855,761.965L233.739,761.965L236.71,742.916Z" style="fill:#000000;"/>
            </g>
            <g transform="matrix(1,0,0,1,0,-3)">
                <path d="M303.141,738.284L301.368,747.034L283.92,747.034L278.998,774.548L296.446,774.548L299.131,761.462L355.167,762.133L353.936,774.996L372.279,774.996L376.306,746.139L361.318,746.139L351.028,733.165L339.396,745.356L339.62,738.533L322.507,738.533L319.375,747.817L319.375,738.198L303.141,738.284Z" style="fill:#000000;"/>
            </g>
            <g transform="matrix(1,0,0,1,0,-3)">
                <path d="M255.06,746.586L252.089,762.489L235.836,762.489L238.632,746.411L255.06,746.586Z" style="fill:#000000;"/>
            </g>
            <g transform="matrix(1,0,0,1,0,-3)">
                <path d="M251.74,764.761L249.293,779.965L232.797,779.965L235.312,765.11L251.74,764.761Z" style="fill:#000000;"/>
            </g>
            <path d="M295.21,410.825L294.391,410.352L295.21,409.879L295.21,410.825ZM295.21,410.825L310.224,419.493L311.044,419.02L311.044,419.966L450.775,500.64L450.775,572.53L295.21,482.715L295.21,464.432L434.942,545.106L434.942,509.782L295.21,429.108L295.21,410.825ZM601.314,650.332L601.314,501.515L690.934,449.773L690.934,597.625L675.101,606.936L675.101,477.197L617.148,510.657L617.148,641.02L601.314,650.332ZM567.946,669.957L567.946,481.86L723.833,391.859L723.833,578.276L708,587.588L708,419.283L583.779,491.002L583.779,660.645L567.946,669.957ZM535.047,689.305L535.047,203.653L757.658,335.121L757.658,372.191L757.779,372.26L757.658,372.33L757.658,390.473L757.779,390.543L757.658,390.613L757.658,558.383L741.824,567.695L741.825,361.569L550.881,471.81L550.881,679.993L535.047,689.305ZM741.078,343.717L550.881,231.392L550.881,453.527L567.946,443.675L567.946,262.66L724.709,353.168L741.078,343.717ZM617.148,415.268L675.101,381.809L675.101,380.261L617.148,346.801L617.148,415.268ZM583.779,434.533L601.314,424.409L601.314,319.377L692.275,371.893L708,362.815L708,361.803L583.779,290.084L583.779,434.533ZM295.21,390.922L295.21,372.639L484.144,481.72L484.144,630.715L295.21,521.635L295.21,503.352L468.31,603.291L468.31,490.861L295.21,390.922ZM295.21,352.002L295.21,333.223L517.512,204.877L517.512,223.16L311.044,342.364L311.044,342.86L327.087,352.123L517.512,242.181L517.512,260.463L342.92,361.264L361.167,371.799L517.512,281.533L517.512,299.816L377,380.94L517.512,462.065L517.512,690.215L295.21,559.475L295.21,541.277L311.044,550.418L501.679,662.535L501.679,471.207L295.21,352.002Z" style="fill:#000000;"/>
        </g>
    </g>
</svg>
