<?xml version="1.0" encoding="UTF-8" standalone="no"?>
<!DOCTYPE svg PUBLIC "-//W3C//DTD SVG 1.1//EN" "http://www.w3.org/Graphics/SVG/1.1/DTD/svg11.dtd">
<svg width="100%" height="100%" viewBox="0 0 1080 1080" version="1.1" xmlns="http://www.w3.org/2000/svg" xmlns:xlink="http://www.w3.org/1999/xlink" xml:space="preserve" xmlns:serif="http://www.serif.com/" style="fill-rule:evenodd;clip-rule:evenodd;stroke-linejoin:round;stroke-miterlimit:2;">
    <g transform="matrix(1,0,0,1,-1150,0)">
        <g id="Artboard2" transform="matrix(1,0,0,1,-0.278884,0)">
            <rect x="1150.28" y="0" width="1080" height="1080" style="fill:none;"/>
            <clipPath id="_clip1">
                <rect x="1150.28" y="0" width="1080" height="1080"/>
            </clipPath>
            <g clip-path="url(#_clip1)">
                <g transform="matrix(2.21966,0,0,2.21966,522.551,-452.041)">
                    <path d="M295.21,410.825L294.391,410.352L295.21,409.879L295.21,410.825ZM295.21,410.825L310.224,419.493L311.044,419.02L311.044,419.966L450.775,500.64L450.775,572.53L295.21,482.715L295.21,464.432L434.942,545.106L434.942,509.782L295.21,429.108L295.21,410.825ZM601.314,650.332L601.314,501.515L690.934,449.773L690.934,597.625L675.101,606.936L675.101,477.197L617.148,510.657L617.148,641.02L601.314,650.332ZM567.946,669.957L567.946,481.86L723.833,391.859L723.833,578.276L708,587.588L708,419.283L583.779,491.002L583.779,660.645L567.946,669.957ZM535.047,689.305L535.047,203.653L757.658,335.121L757.658,372.191L757.779,372.26L757.658,372.33L757.658,390.473L757.779,390.543L757.658,390.613L757.658,558.383L741.824,567.695L741.825,361.569L550.881,471.81L550.881,679.993L535.047,689.305ZM741.078,343.717L550.881,231.392L550.881,453.527L567.946,443.675L567.946,262.66L724.709,353.168L741.078,343.717ZM617.148,415.268L675.101,381.809L675.101,380.261L617.148,346.801L617.148,415.268ZM583.779,434.533L601.314,424.409L601.314,319.377L692.275,371.893L708,362.815L708,361.803L583.779,290.084L583.779,434.533ZM295.21,390.922L295.21,372.639L484.144,481.72L484.144,630.715L295.21,521.635L295.21,503.352L468.31,603.291L468.31,490.861L295.21,390.922ZM295.21,352.002L295.21,333.223L517.512,204.877L517.512,223.16L311.044,342.364L311.044,342.86L327.087,352.123L517.512,242.181L517.512,260.463L342.92,361.264L361.167,371.799L517.512,281.533L517.512,299.816L377,380.94L517.512,462.065L517.512,690.215L295.21,559.475L295.21,541.277L311.044,550.418L501.679,662.535L501.679,471.207L295.21,352.002Z" style="fill:#000000;"/>
                </g>
            </g>
        </g>
    </g>
</svg>
